<svg xmlns="http://www.w3.org/2000/svg" version="1.1" xmlns:xlink="http://www.w3.org/1999/xlink" width="1500" height="1500" viewBox="0 0 1500 1500"><rect width="1500" height="1500" x="0" y="0" id="background" stroke="transparent" fill="#5b21b6"></rect><svg xml:space="preserve" width="1000" height="1000" data-version="2" data-id="lg_XiGG98JphQoU2qYKt2" viewBox="0 0 543 262" x="250" y="250"><rect width="100%" height="100%" fill="transparent"></rect><path fill="#fff" d="M88.68 194.04q134.14-.71 194.5-3.89-2.47 14.48-3 29.83-.53 15.36-.53 38.66H5.37q2.82-68.49 2.82-128.14 0-59.66-2.82-128.14h274.28v63.89H88.68v33.89q16.94.35 50.12.35 56.13 0 116.14-2.12v60.72q-60.01-2.12-116.14-2.12-33.18 0-50.12.35Z" paint-order="stroke"></path><rect width="277.81" height="256.28" x="-138.91" y="-128.14" fill="none" rx="0" ry="0" transform="translate(144.78 131)"></rect><path fill="#fff" d="M536.63 2.36q-2.47 59.65-2.47 128.14 0 68.48 2.47 128.14h-82.95v-96.02H323.77v96.02h-82.95q2.82-68.49 2.82-128.14 0-59.66-2.82-128.14h82.95v96.01h129.91V2.36Z" paint-order="stroke"></path><rect width="295.81" height="256.28" x="-147.91" y="-128.14" fill="none" rx="0" ry="0" transform="translate(389.23 131)"></rect></svg></svg>